<?xml version="1.0" encoding="UTF-8" standalone="no"?>
<svg width="165px" height="165px" viewBox="0 0 165 165" version="1.1" xmlns="http://www.w3.org/2000/svg" xmlns:xlink="http://www.w3.org/1999/xlink">
    <!-- Generator: Sketch 46.2 (44496) - http://www.bohemiancoding.com/sketch -->
    <title>plate</title>
    <desc>Created with Sketch.</desc>
    <defs>
        <circle id="path-1" cx="82.5" cy="82.5" r="82.5"></circle>
        <filter x="-0.9%" y="-0.9%" width="101.8%" height="101.8%" filterUnits="objectBoundingBox" id="filter-2">
            <feGaussianBlur stdDeviation="1.5" in="SourceAlpha" result="shadowBlurInner1"></feGaussianBlur>
            <feOffset dx="0" dy="0" in="shadowBlurInner1" result="shadowOffsetInner1"></feOffset>
            <feComposite in="shadowOffsetInner1" in2="SourceAlpha" operator="arithmetic" k2="-1" k3="1" result="shadowInnerInner1"></feComposite>
            <feColorMatrix values="0 0 0 0 0.12093506   0 0 0 0 0.02684088   0 0 0 0 0.843989158  0 0 0 0.774343297 0" type="matrix" in="shadowInnerInner1"></feColorMatrix>
        </filter>
        <circle id="path-3" cx="83" cy="83" r="57"></circle>
        <filter x="-1.3%" y="-1.3%" width="102.6%" height="102.6%" filterUnits="objectBoundingBox" id="filter-4">
            <feGaussianBlur stdDeviation="1.5" in="SourceAlpha" result="shadowBlurInner1"></feGaussianBlur>
            <feOffset dx="0" dy="0" in="shadowBlurInner1" result="shadowOffsetInner1"></feOffset>
            <feComposite in="shadowOffsetInner1" in2="SourceAlpha" operator="arithmetic" k2="-1" k3="1" result="shadowInnerInner1"></feComposite>
            <feColorMatrix values="0 0 0 0 0.847058824   0 0 0 0 0.831372549   0 0 0 0 0.968627451  0 0 0 1 0" type="matrix" in="shadowInnerInner1"></feColorMatrix>
        </filter>
    </defs>
    <g id="Page-1" stroke="none" stroke-width="1" fill="none" fill-rule="evenodd">
        <g id="Artboard" transform="translate(-8.000000, -18.000000)">
            <g id="plate" transform="translate(8.000000, 18.000000)">
                <g id="Oval">
                    <use fill="#F8F8FC" fill-rule="evenodd" xlink:href="#path-1"></use>
                    <use fill="black" fill-opacity="1" filter="url(#filter-2)" xlink:href="#path-1"></use>
                </g>
                <g id="Oval-2">
                    <use fill="#EEEEF4" fill-rule="evenodd" xlink:href="#path-3"></use>
                    <use fill="black" fill-opacity="1" filter="url(#filter-4)" xlink:href="#path-3"></use>
                </g>
                <g id="Group" transform="translate(74.000000, 146.000000)" fill="#CCCA10">
                    <ellipse id="Oval-3" cx="8.5" cy="7.5" rx="1.5" ry="5.5"></ellipse>
                    <ellipse id="Oval-3-Copy" transform="translate(13.684399, 5.177426) rotate(-40.000000) translate(-13.684399, -5.177426) " cx="13.6843985" cy="5.17742585" rx="1.5" ry="5.5"></ellipse>
                    <ellipse id="Oval-3-Copy-2" transform="translate(4.186628, 5.459143) rotate(32.000000) translate(-4.186628, -5.459143) " cx="4.1866281" cy="5.45914343" rx="1.5" ry="5.5"></ellipse>
                </g>
                <g id="Group-Copy" transform="translate(82.500000, 13.500000) scale(1, -1) translate(-82.500000, -13.500000) translate(73.000000, 7.000000)" fill="#CCCA10">
                    <ellipse id="Oval-3" cx="8.5" cy="7.5" rx="1.5" ry="5.5"></ellipse>
                    <ellipse id="Oval-3-Copy" transform="translate(13.684399, 5.177426) rotate(-40.000000) translate(-13.684399, -5.177426) " cx="13.6843985" cy="5.17742585" rx="1.5" ry="5.5"></ellipse>
                    <ellipse id="Oval-3-Copy-2" transform="translate(4.186628, 5.459143) rotate(32.000000) translate(-4.186628, -5.459143) " cx="4.1866281" cy="5.45914343" rx="1.5" ry="5.5"></ellipse>
                </g>
                <g id="Group-Copy-2" transform="translate(12.500000, 82.500000) scale(1, -1) rotate(90.000000) translate(-12.500000, -82.500000) translate(3.000000, 76.000000)" fill="#CCCA10">
                    <ellipse id="Oval-3" cx="8.5" cy="7.5" rx="1.5" ry="5.5"></ellipse>
                    <ellipse id="Oval-3-Copy" transform="translate(13.684399, 5.177426) rotate(-40.000000) translate(-13.684399, -5.177426) " cx="13.6843985" cy="5.17742585" rx="1.5" ry="5.5"></ellipse>
                    <ellipse id="Oval-3-Copy-2" transform="translate(4.186628, 5.459143) rotate(32.000000) translate(-4.186628, -5.459143) " cx="4.1866281" cy="5.45914343" rx="1.5" ry="5.5"></ellipse>
                </g>
                <g id="Group-Copy-3" transform="translate(152.500000, 82.500000) scale(-1, -1) rotate(90.000000) translate(-152.500000, -82.500000) translate(143.000000, 76.000000)" fill="#CCCA10">
                    <ellipse id="Oval-3" cx="8.5" cy="7.5" rx="1.5" ry="5.5"></ellipse>
                    <ellipse id="Oval-3-Copy" transform="translate(13.684399, 5.177426) rotate(-40.000000) translate(-13.684399, -5.177426) " cx="13.6843985" cy="5.17742585" rx="1.5" ry="5.5"></ellipse>
                    <ellipse id="Oval-3-Copy-2" transform="translate(4.186628, 5.459143) rotate(32.000000) translate(-4.186628, -5.459143) " cx="4.1866281" cy="5.45914343" rx="1.5" ry="5.5"></ellipse>
                </g>
            </g>
        </g>
    </g>
</svg>