<?xml version="1.0" encoding="UTF-8" standalone="no"?>
<svg width="199px" height="64px" viewBox="0 0 199 64" version="1.1" xmlns="http://www.w3.org/2000/svg" xmlns:xlink="http://www.w3.org/1999/xlink">
    <!-- Generator: Sketch 46.2 (44496) - http://www.bohemiancoding.com/sketch -->
    <title>spoon</title>
    <desc>Created with Sketch.</desc>
    <defs></defs>
    <g id="Page-1" stroke="none" stroke-width="1" fill="none" fill-rule="evenodd">
        <g id="spoon" transform="translate(-1.000000, -18.000000)" fill="#A1AFB1">
            <path d="M124.742844,26.1000207 C112.101052,32.709098 101.87339,36.3172461 94.0598593,36.9244649 C55.6265467,40.2162058 28.0764131,39.2299608 11.4094584,33.9657301 L11.4094584,33.9657301 C10.6299999,33.7195394 9.81741393,33.5942626 9,33.5942626 C4.58172416,33.5942626 1.0000039,37.1759828 1.0000039,41.5942587 L1,41.5942587 L1,56.7145141 C1,57.5617655 1.13458876,58.4036383 1.39873495,59.2086611 C2.77621428,63.4067234 7.29608383,65.6932577 11.4941461,64.3157784 L11.4941464,64.3157791 C28.6182873,58.6969606 56.1401916,58.1169579 94.0598593,62.575771 C101.545064,62.575771 111.608439,66.1453864 124.249987,73.2846173 C131.795596,78.2738919 141.558643,81.526411 152.24916,81.3027503 C176.283898,80.7999098 200,64.8589555 200,49.9872392 C200,35.1155229 176.208124,18 152.24916,18 C141.808244,18 132.22882,21.2273795 124.742844,26.1000207 Z"></path>
        </g>
    </g>
</svg>