<?xml version="1.0" encoding="UTF-8" standalone="no"?>
<svg width="154px" height="200px" viewBox="0 0 154 200" version="1.1" xmlns="http://www.w3.org/2000/svg" xmlns:xlink="http://www.w3.org/1999/xlink">
    <!-- Generator: Sketch 46.2 (44496) - http://www.bohemiancoding.com/sketch -->
    <title>stomach</title>
    <desc>Created with Sketch.</desc>
    <defs>
        <radialGradient cx="68.7049985%" cy="57.9319528%" fx="68.7049985%" fy="57.9319528%" r="63.3533843%" gradientTransform="translate(0.687050,0.579320),scale(1.000000,0.764563),rotate(90.000000),translate(-0.687050,-0.579320)" id="radialGradient-1">
            <stop stop-color="#E19191" stop-opacity="0.5" offset="0%"></stop>
            <stop stop-color="#790606" stop-opacity="0.5" offset="100%"></stop>
        </radialGradient>
        <path d="M55.0567715,122.229894 C47.56944,119.088623 36.6511991,117.191097 27.9083896,116.734375 C12.4453125,117.945312 4,135.321367 4,159.155733 C4,182.990098 23.3212777,201.30896 46.6396511,200.996051 C53.0364767,200.910212 53.9003422,193.186874 53.4838291,181.121207 C45.8368334,173.157479 27.9083896,178.117294 27.9083896,155.998747 C27.9083896,145.467455 31.2319778,143.845174 35.8407218,145.222286 C42.0825217,159.919083 61.9322561,174.94449 89.2592897,174.94449 C127.045479,174.94449 157.677238,144.312731 157.677238,106.526541 C157.677238,68.7403519 132.160721,44.1810797 103.65214,51.4509152 C99.3331645,52.5522763 96.4105852,55.7987151 94.3573999,60.3481672 C84.1439967,53.6822101 77.7333547,47.5532257 75.1254737,41.9612142 C72.1798376,35.6449628 71.0802376,23.1709677 71.8266738,4.53922916 C71.8705235,3.44469888 71.1967265,2.44909832 70.1643251,2.08294729 L70.164324,2.08295039 C66.325209,0.721371633 62.9986828,0.0273019268 60.1847453,0.000741269658 C57.3946271,-0.0255945589 54.2073817,0.649814104 50.6230093,2.02696726 C49.5933178,2.42258541 48.9446068,3.446304 49.0265344,4.54633402 L49.0265409,4.54633354 C50.5641974,25.192235 53.204632,40.7520707 56.9478445,51.2258406 C60.3583269,60.7686082 70.9225139,74.6066578 88.6404057,92.7399893 C87.2130222,107.457212 85.3711608,121.071995 77.0271144,123.85717 C70.6868188,125.973508 62.5905859,123.603135 55.0567715,122.229894 Z" id="path-2"></path>
    </defs>
    <g id="Page-1" stroke="none" stroke-width="1" fill="none" fill-rule="evenodd" fill-opacity="0.5">
        <g id="Artboard" transform="translate(-4.000000, 0.000000)">
            <g id="stomach">
                <use fill="#EFADAB" xlink:href="#path-2"></use>
                <use fill="url(#radialGradient-1)" xlink:href="#path-2"></use>
            </g>
        </g>
    </g>
</svg>