<?xml version="1.0" encoding="UTF-8" standalone="no"?>
<svg width="180px" height="200px" viewBox="0 0 180 200" version="1.1" xmlns="http://www.w3.org/2000/svg" xmlns:xlink="http://www.w3.org/1999/xlink">
    <!-- Generator: Sketch 46.2 (44496) - http://www.bohemiancoding.com/sketch -->
    <title>stomach</title>
    <desc>Created with Sketch.</desc>
    <defs></defs>
    <g id="Page-1" stroke="none" stroke-width="1" fill="none" fill-rule="evenodd">
        <g id="stomach" fill="#95725D">
            <path d="M73.7945645,116.814775 C64.9150461,113.053363 54.8496738,110.010681 50.4206707,110.010681 C32.6164776,110.010681 26,126.064982 26,145.27477 C26,164.484557 51.9530455,195.069551 66.7623871,174.796875 C77.6793287,159.85255 50.9832783,164.60023 50.9832783,140.058594 C50.9832783,138.246035 51.4760421,136.756121 52.3508857,135.531168 C58.0417931,146.881554 73.6125963,158.000037 94.7164425,158.000037 C125.170983,158.000037 149.859267,133.311753 149.859267,102.857213 C149.859267,72.4026717 129.293715,52.6086314 106.31665,58.4679018 C102.92742,59.332173 100.605106,61.8353904 98.9576641,65.35113 C90.3730568,59.6027485 85.1621717,54.7588672 83.3250087,50.8194861 C80.969694,45.7690458 80.0787834,35.8338559 80.6522768,21.0139164 C80.6949012,19.9124375 80.011081,18.9130268 78.968972,18.5537478 L78.9689665,18.5537639 C76.0252905,17.538898 73.4633775,17.0211758 71.2832276,17.0005974 C69.0223243,16.9792569 66.43788,17.5296302 63.5298947,18.6517176 L63.5298947,18.6517176 C62.6974691,18.9729208 62.0993264,19.7134211 61.9603752,20.5947818 L61.960384,20.5947831 C59.0813809,38.8561652 59.1559744,52.2233998 62.1841645,60.6964869 C66.0691806,71.5670329 79.523683,88.2498481 93.7398716,96.321493 C92.5911634,106.319691 90.7061159,114.87302 84.8576743,116.825182 C81.58652,117.917066 77.735439,117.527141 73.7945675,116.814777 Z M0,0 L180,0 L180,200 L0,200 L0,0 Z"></path>
        </g>
    </g>
</svg>